<svg xmlns="http://www.w3.org/2000/svg" version="1.1" xmlns:xlink="http://www.w3.org/1999/xlink" xmlns:svgjs="http://svgjs.dev/svgjs" width="1000" height="520" viewBox="0 0 1000 520"><g transform="matrix(1,0,0,1,-0.6055448205781317,0.11289014907185901)"><svg viewBox="0 0 396 206" data-background-color="#8dbdff" preserveAspectRatio="xMidYMid meet" height="520" width="1000" xmlns="http://www.w3.org/2000/svg" xmlns:xlink="http://www.w3.org/1999/xlink"><g id="tight-bounds" transform="matrix(1,0,0,1,0.23979574894894995,-0.044721866747693184)"><svg viewBox="0 0 395.52 206.0894437334954" height="206.0894437334954" width="395.52"><g><svg viewBox="0 0 395.52 206.0894437334954" height="206.0894437334954" width="395.52"><g transform="matrix(1,0,0,1,0,133.39764014296503)"><svg viewBox="0 0 395.52 72.69180359053036" height="72.69180359053036" width="395.52"><g id="textblocktransform"><svg viewBox="0 0 395.52 72.69180359053036" height="72.69180359053036" width="395.52" id="textblock"><g><svg viewBox="0 0 395.52 54.35319998164828" height="54.35319998164828" width="395.52"><g transform="matrix(1,0,0,1,0,0)"><svg width="395.52" viewBox="-0.9821481704711914 -33.29603958129883 337.2947998046875 46.35176086425781" height="54.35319998164828" data-palette-color="#0080ff"><path d="M27.898-22.293l3.308 28.64 3.387 0.688-0.119 1.516-11.155 1.297-0.29-1.567 3.64-1.386-1.504-13.286-16.043 1.938 0.868 13.362 4.041 0.761 0.586 1.934-10.975 1.124-0.315-1.362 3.586-1.833-4.391-29.265-3.504-0.826 0.026-1.453 11-1.329 0.568 1.785-3.293 1.344 1.266 11.31 16.564-0.046-1.059-12.937-3.338-0.695-0.608-1.286 10.331-1.943 0.578 1.028zM64.024-1.239l0.788 7.821-25.768 2.081-0.408-1.659 4.874-1.364-4.467-29.33-4.555-1.117-0.562-1.695 26.683-1.866 0.652 6.377-2.528 0.138-1.041-3.045-13.415 1.216-0.819 1.323 1.253 10.619 15.34-0.403-0.242 2.222-14.616 1.681 0.237 4.116 3.313 8.175 12.572-0.685 0.208-4.067zM86.481-14.576l4.104-5.006-2.215-6.276-7.38-0.798-5.056 1.131 1.588 10.959zM98.492-5.711l3.342 3.063-5.787 5.911-3.904-0.379-3.416-11.477-4.889-3.11-6.383 1.371 0.975 12.292 3.193 0.828 0.526 1.859-10.676 0.566-0.19-1.33 2.857-1.334-2.36-26.201-1.915-1.806-3.599-0.159-0.03-2.694 4.064-0.373 2.132 0.708 1.174-1.171 13.503-0.716 6.632 5.338-0.342 8.342-4.091 3.562 3.908 3.275 0.939 8.908 1.124 0.315zM128.089-8.177l0.059-12.083-6.854-7.087-5.57-1.114-3.637 1.139 0.748 25.741 9.53 0.553zM121.667-31.445l10.363 10.177-0.939 16.011-7.62 8.267-12.647-0.386-7.447 0.454 0.087-1.545 5.315-1.458-0.961-28.514-3.531-1.198 0.127-1.796 4.905-0.45zM143.244-0.083l2.954 1.034 0.133 1.487-9.515-0.538-0.082-1.439 3.405-1.166-1.502-29.754-3.657-1.158 0.07-1.342 10.636-0.337 0.339 1.783-3.307 1.064zM177.961-1.034l3.633 1.132 0.254 1.789-10.441-0.176-0.152-1.239 2.487-1.006-16.807-24.961 0.297 24.949 2.542 0.844 0.204 1.84-10.39-0.176-0.103-1.24 4.076-1.6-0.417-29.529-3.232-0.882 0.046-1.44 10.78-0.125 0.203 1.439-2.828 0.847 16.809 25.561 0.441-25.651-3.532-0.882 0.047-1.44 10.73-0.075 0.253 1.34-3.328 1.048zM201.384-8.069l-0.495-2.342 8.074 1.178-0.419 11.573-16.989-0.245-5.787-7.937 6.576-23.764 8.271-2.988 6.71 0.107 4.311 2.581-5.588 9.272-2.269-0.503 2.887-6.694-3.759-0.928-8.17 2.89-4.212 20.628 3.756 3.218 8.022 1.337 2.6-2.58-0.107-3.973zM266.382-29.721l11.151 1.555-0.247 1.427-3.419 0.461-0.359 0.126-10.307 32.388-4.959-0.335-4.126-28.082-0.056-1.397-0.15-0.01-0.29 1.324-7.304 26.959-5.797-0.392-6.262-33.398-3.308-1.176 0.097-1.437 11.104 0.751-0.097 1.436-3.137 0.741v0l4.074 29.01 0.878 0.21 8.645-29.154 3.572 0.242 4.753 30.66 0.739 0.05 8.142-28.987-3.484-1.539zM284.104 5.107l2.819 1.359-0.035 1.493-9.394-1.603 0.08-1.439 3.514-0.776 1.849-29.734-3.504-1.563 0.221-1.325 10.605 0.859 0.138 1.81-3.406 0.686zM314.006 5.001l6.154 3.62-3.445 3.627-6.05-4.564-2.349-11.453-3.789-3.714-4.401 0.867-1.558 12.877 3.284 1.063 0.088 1.961-10.844-1.386-0.004-1.348 3.419-0.633 3.213-29.395-3.993-1.935 0.404-1.404 11.015 1.204 0.049 1.856-3.104 0.506 0.094 0.06-1.701 13.264 5.141-0.836 3.586-2.154 4.106-10.606 6.114-0.529 0.461 3.048-3.585 0.312-5.708 10.623-1.98 1.182 2.889 1.915zM328.911 10.105l2.769 1.46-0.089 1.491-9.33-1.941 0.132-1.434 3.54-0.65 2.917-29.649-3.445-1.687 0.267-1.317 10.568 1.241 0.073 1.814-3.429 0.562z" opacity="1" transform="matrix(1,0,0,1,0,0)" fill="#0080ff" class="wordmark-text-0" data-fill-palette-color="primary" id="text-0"></path></svg></g></svg></g><g transform="matrix(1,0,0,1,118.31980799999998,58.71536193120243)"><svg viewBox="0 0 158.88038400000002 13.976441659327927" height="13.976441659327927" width="158.88038400000002"><g transform="matrix(1,0,0,1,0,0)"><svg width="158.88038400000002" viewBox="0 -36.95000076293945 517.75 45.55000305175781" height="13.976441659327927" data-palette-color="#0080ff"><path d="M35.6-35.65L46.9-34.85 46.75-33.4 43.35-32.7 43-32.55 34.85 0.65 29.85 0.65 23.8-27.25 23.65-28.65 23.5-28.65 23.3-27.3 17.8 0.25 11.95 0.25 3.4-32.85 0-33.8 0-35.25 11.2-35.25 11.2-33.8 8.1-32.85 8.1-32.85 14.15-4 15.05-3.85 21.75-33.7 25.35-33.7 32.2-3.25 32.95-3.25 39.15-32.9 35.55-34.2 35.6-35.65ZM74.55-7L77.25-4.65 71.4 1.35 67.2-0.5 66.65-17.95 63.2-21.8 56.1-15.25 56.1-2.3 59.75-1.2 60.05 0.25 50.3 0.3 50-1.2 51.9-1.95 52.65-31.55 49.4-34.4 53.15-36.95 56.4-31.8 55.85-18.6 61.1-25.7 67.7-23.75 70.75-18.1 70.05-2.2 71.1-1.5 74.55-7ZM83-13.2L83.05-13.4 94.75-15.25 93.34-21.8 90-23.05 83.45-20.85 83-13.2ZM86.15-25.7L93.2-25.15 97.2-21.65 98.65-13.05 83-10.55 85.7-2.6 91.59-2.75 98.59-4.85 99-0.9 84.9 1.1 78.75-8 79.45-20.85 86.15-25.7ZM117.69-24.8L121.24-20.6 118.19-18 115.54-21.85 111.49-20.5 110.29-17.85 110.49-2.85 113.44-1.9 113.14-0.15 104.29-0.15 104.14-1.5 106.49-2.45 106.44-22.45 103.99-23.85 106.14-26.6 109.79-24.25 110.09-22.55 112.64-23.55 117.69-24.8ZM128.99-13.2L129.04-13.4 140.74-15.25 139.34-21.8 135.99-23.05 129.44-20.85 128.99-13.2ZM132.14-25.7L139.19-25.15 143.19-21.65 144.64-13.05 128.99-10.55 131.69-2.6 137.59-2.75 144.59-4.85 144.99-0.9 130.89 1.1 124.74-8 125.44-20.85 132.14-25.7ZM171.99-34.95L191.29-34.95 190.54-29.45 187.79-30.2 187.79-32.15 179.49-32.15 180.64-2.25 183.09-1.5 183.09 0.45 172.84 0.1 172.84-1.15 176.34-2.25 175.94-32.15 173.19-32.15 168.14-31.4 168.14-29.45 164.94-29.05 164.54-34.95 171.99-34.95ZM219.88-7L222.58-4.65 216.73 1.35 212.53-0.5 211.98-17.95 208.53-21.8 201.43-15.25 201.43-2.3 205.08-1.2 205.38 0.25 195.63 0.3 195.33-1.2 197.23-1.95 197.98-31.55 194.73-34.4 198.48-36.95 201.73-31.8 201.18-18.6 206.43-25.7 213.03-23.75 216.08-18.1 215.38-2.2 216.43-1.5 219.88-7ZM228.33-13.2L228.38-13.4 240.08-15.25 238.68-21.8 235.33-23.05 228.78-20.85 228.33-13.2ZM231.48-25.7L238.53-25.15 242.53-21.65 243.98-13.05 228.33-10.55 231.03-2.6 236.93-2.75 243.93-4.85 244.33-0.9 230.23 1.1 224.08-8 224.78-20.85 231.48-25.7ZM289.63-10.65L290.18-22.8 283.57-30.2 278.02-31.55 274.32-30.55 274.02-4.65 283.57-3.7 289.63-10.65ZM284.13-34.3L294.13-23.65 292.52-7.6 284.52 0.4 271.82-0.5 264.32-0.35 264.47-1.9 269.88-3.15 270.07-31.85 266.57-33.2 266.77-35 271.72-35.25 284.13-34.3ZM310.07-22.55L304.97-22.95 300.57-17.25 301.52-7.4 307.07-2.15 310.82-2.2 315.52-11.4 313.42-20.05 310.07-22.55ZM303.37-26.3L311.77-26.3 317.07-21.4 319.07-9.95 312.02 1.1 305.02 1.4 297.67-7.45 297.12-18.85 303.37-26.3ZM328.12-20.55L326.47-16.9 330.22-11.75 337.42-10.55 340.52-16.45 338.67-21.05 331.57-22.15 328.12-20.55ZM329.62-7.95L327.77-9.35 326.77-3.75 337.17-3.2 340.62-2.85 342.92 4.15 325.22 8.6 322.57 2.35 326.07 3.15 326.32 5.9 338.97 1.6 338.22 0.05 324.22-1.6 322.87-5.1 324.97-11.65 323.12-13.9 323.27-19.5 328.27-24.65 336.52-24.8 337.47-24.05 343.97-28.3 344.52-25.95 339.87-22.35 341.02-21.5 344.37-17.35 340.62-7.8 329.62-7.95ZM350.17-24.7L358.42-26.1 364.02-23.8 366.02-25.75 368.17-24.25 364.37-19.15 362.57-20.85 354.37-22.8 351.72-19.7 355.17-14.85 365.22-12.35 366.62-3.85 360.02 0.25 351.22-1.75 350.02 0.3 347.52-0.15 349.22-5.4 359.42-3 362.57-5.35 361.37-9.55 350.67-13.2 347.77-19.15 350.17-24.7ZM406.71-19.15L411.16-23.9 409.36-30.35 402.01-31.65 396.86-30.85 397.71-19.75 406.71-19.15ZM418.16-9.45L421.31-6.15 415.11-0.6 411.21-1.25 408.56-13 403.86-16.45 397.36-15.5 397.51-3.1 400.66-2.05 401.06-0.15 390.31-0.3 390.21-1.65 393.16-2.8 392.56-29.25 390.76-31.2 387.16-31.6 387.31-34.3 391.41-34.4 393.51-33.55 394.76-34.65 408.36-34.45 414.66-28.65 413.76-20.3 409.41-17 413.11-13.45 413.46-4.45 414.56-4.05 418.16-9.45ZM435.76-22.55L430.66-22.95 426.26-17.25 427.21-7.4 432.76-2.15 436.51-2.2 441.21-11.4 439.11-20.05 435.76-22.55ZM429.06-26.3L437.46-26.3 442.76-21.4 444.76-9.95 437.71 1.1 430.71 1.4 423.36-7.45 422.81-18.85 429.06-26.3ZM462.86-13.1L458.61-12.95 453.01-9.2 452.86-3.6 454.86-2.55Q455.86-2.6 456.71-2.65L456.71-2.65Q457.41-2.7 457.98-2.78 458.56-2.85 458.56-2.95L458.56-2.95Q458.56-2.95 458.76-3.25 458.96-3.55 459.28-4.03 459.61-4.5 460.01-5.08 460.41-5.65 460.86-6.25L460.86-6.25Q461.86-7.65 463.21-9.45L463.21-9.45 462.86-13.1ZM450.16-22.8L455.41-26.45 466.71-23.8 466.91-3.25 471.16-2.95 471.21-0.65 465.01-0.05 462.91-4.45 460.31-0.35 451.86 1.25 448.76-2.5 448.96-10.1 457.51-15.65 462.81-16.35 463.21-21.8 454.86-22.9 452.41-18.65 449.66-21.55 450.16-22.8ZM515.55-8.45L517.75-5.8 511.5 0 507.4-0.75 506.95-20.7 503.9-22.6 496.7-17.55 497.1-15.5 497.6-2.75 500.1-1.55 499.85-0.35 490.7-0.1 490.9-1.4 493.4-2.6 493.1-19.5 491.05-22.7 486.55-20.55 481.7-15.75 482.15-2.7 485.3-1.65 485.05 0.15 475.55 0.05 475.4-1.35 477.65-2.25 478-21.9 474.2-24.45 476.4-28.15 480.65-24.75 480.95-19.65 487.5-24.85 495.2-24.6 496.1-19.9 504.05-24.85 509.3-23.95 511.15-19.9 510.4-3.5 511.75-3.4 515.55-8.45Z" opacity="1" transform="matrix(1,0,0,1,0,0)" fill="#0080ff" class="slogan-text-1" data-fill-palette-color="secondary" id="text-1"></path></svg></g></svg></g></svg></g></svg></g><g transform="matrix(1,0,0,1,112.0429575260947,0)"><svg viewBox="0 0 171.4340849478106 117.61533820947811" height="117.61533820947811" width="171.4340849478106"><g><svg xmlns="http://www.w3.org/2000/svg" xmlns:xlink="http://www.w3.org/1999/xlink" version="1.1" x="0" y="0" viewBox="2.4779767990112305 17.335996627807617 97.5750503540039 66.94306182861328" enable-background="new 0 0 100 100" xml:space="preserve" width="171.4340849478106" height="117.61533820947811" class="icon-icon-0" data-fill-palette-color="accent" id="icon-0"><g fill="#010c80" data-fill-palette-color="accent"><g fill="#010c80" data-fill-palette-color="accent"><path fill="none" d="M51.266 84.247c-15.741 0-31.482-0.018-47.224 0.032-1.277 0.005-1.567-0.287-1.564-1.564 0.046-21.271 0.046-42.543 0-63.815-0.003-1.276 0.288-1.565 1.564-1.564 31.483 0.042 62.965 0.042 94.447 0 1.276-0.001 1.567 0.287 1.564 1.564-0.046 21.272-0.046 42.544 0 63.815 0.003 1.277-0.287 1.569-1.564 1.564C82.748 84.229 67.007 84.247 51.266 84.247zM88.85 79.192c0.242 0 0.84 0.032 1.432-0.006 3.176-0.205 4.583-1.642 4.679-4.841 0.049-1.609 0.108-3.224-0.36-4.81-0.247-0.836-0.17-1.594 0.587-2.3 1.553-1.45 2.153-3.245 2.085-5.448-0.05-1.607-0.332-3.202-0.246-4.815 0.159-2.948-0.901-5.666-2.742-7.71-3.79-4.209-8.291-7.225-14.461-6.526-2.605 0.295-5.265 0.126-7.899 0.173-2.375 0.042-4.745 0.088-7.123 0.231-6.457 0.386-12.91 0.185-19.258-1.28-2.376-0.548-4.542-1.645-6.151-3.423-2.899-3.204-5.878-6.335-8.401-9.888-1.475-2.077-2.6-4.139-2.81-6.674-0.082-0.99-0.094-2.096-1.58-1.106-0.111 0.074-0.377 0.101-0.442 0.031-1.228-1.335-1.465 0.031-1.563 0.703-0.389 2.686-2.305 3.727-4.511 4.607-2.323 0.927-4.948 1.523-5.636 4.537-0.114 0.5-0.557 0.804-1.16 0.814-1.39 0.023-2.62 0.677-3.921 1.051-3.166 0.909-3.492 1.841-1.552 4.545 0.343 0.478 0.793 0.881 1.207 1.307 0.35 0.359 0.932 0.588 0.954 1.142 0.104 2.632 1.977 2.864 3.937 2.91 1.481 0.034 2.844 0.321 4.109 1.139 0.973 0.629 1.525 1.481 1.21 2.567-1.05 3.617 0.03 7.069 0.646 10.567 1.064 6.043 4.511 10.474 9.339 14.008 1.002 0.733 2.166 0.947 3.292 1.308 0.575 0.184 1.211 0.352 1.214 1.101 0.003 0.665-0.599 0.733-1.081 0.856-1.106 0.284-1.972 0.99-2.838 1.662-0.667 0.517-1.361 1.153-1.021 2.143 0.31 0.898 1.072 1.326 1.986 1.339 1.612 0.021 3.232 0.052 4.835-0.084 1.318-0.111 2.447-0.722 3.046-2.012 1.009-2.173 2.905-2.974 5.098-3.321 1.005-0.159 2.015-0.292 3.018-0.466 3.836-0.668 7.649-1.515 11.593-1.194 1.619 0.132 3.27-0.044 4.778-0.594 2.372-0.864 4.791-1.003 7.258-0.95 0.788 0.017 1.531-0.148 2.144-0.667 2.432-2.056 4.871-1.427 7.288-0.008 0.886 0.52 1.789 0.969 2.768 1.279 3.076 0.976 3.074 0.979 0.977 3.318-1.502 1.676-1.141 3.343 0.927 4.245C85.777 79.211 87.121 79.339 88.85 79.192z"></path><path fill-rule="evenodd" clip-rule="evenodd" d="M88.85 79.192c-1.729 0.146-3.072 0.019-4.351-0.539-2.067-0.902-2.429-2.569-0.927-4.245 2.098-2.339 2.1-2.343-0.977-3.318-0.979-0.311-1.882-0.76-2.768-1.279-2.417-1.419-4.856-2.048-7.288 0.008-0.612 0.519-1.355 0.684-2.144 0.667-2.467-0.053-4.886 0.086-7.258 0.95-1.509 0.55-3.159 0.726-4.778 0.594-3.944-0.32-7.757 0.526-11.593 1.194-1.003 0.174-2.013 0.307-3.018 0.466-2.193 0.348-4.089 1.148-5.098 3.321-0.599 1.29-1.728 1.9-3.046 2.012-1.603 0.136-3.224 0.105-4.835 0.084-0.915-0.013-1.677-0.44-1.986-1.339-0.341-0.989 0.354-1.626 1.021-2.143 0.866-0.672 1.732-1.378 2.838-1.662 0.482-0.123 1.084-0.191 1.081-0.856-0.003-0.749-0.639-0.917-1.214-1.101-1.126-0.36-2.289-0.574-3.292-1.308-4.829-3.534-8.275-7.965-9.339-14.008-0.616-3.498-1.696-6.95-0.646-10.567 0.315-1.086-0.237-1.938-1.21-2.567-1.266-0.818-2.628-1.105-4.109-1.139-1.959-0.045-3.833-0.277-3.937-2.91-0.022-0.553-0.604-0.783-0.954-1.142-0.414-0.425-0.864-0.829-1.207-1.307-1.94-2.705-1.614-3.636 1.552-4.545 1.301-0.374 2.531-1.028 3.921-1.051 0.603-0.01 1.045-0.314 1.16-0.814 0.688-3.014 3.313-3.61 5.636-4.537 2.206-0.881 4.122-1.922 4.511-4.607 0.098-0.672 0.335-2.039 1.563-0.703 0.064 0.07 0.331 0.043 0.442-0.031 1.486-0.99 1.499 0.116 1.58 1.106 0.21 2.535 1.335 4.597 2.81 6.674 2.522 3.553 5.502 6.684 8.401 9.888 1.609 1.778 3.775 2.875 6.151 3.423 6.348 1.464 12.801 1.666 19.258 1.28 2.378-0.143 4.748-0.189 7.123-0.231 2.635-0.047 5.294 0.123 7.899-0.173 6.17-0.699 10.671 2.316 14.461 6.526 1.841 2.044 2.901 4.762 2.742 7.71-0.086 1.613 0.196 3.208 0.246 4.815 0.068 2.203-0.532 3.998-2.085 5.448-0.757 0.706-0.834 1.464-0.587 2.3 0.469 1.586 0.409 3.2 0.36 4.81-0.096 3.199-1.503 4.636-4.679 4.841C89.689 79.225 89.092 79.192 88.85 79.192z" fill="#010c80" data-fill-palette-color="accent"></path></g></g></svg></g></svg></g><g></g></svg></g><defs></defs></svg><rect width="395.52" height="206.0894437334954" fill="none" stroke="none" visibility="hidden"></rect></g></svg></g></svg>